<?xml version="1.0" encoding="iso-8859-1"?>
<!DOCTYPE svg PUBLIC "-//W3C//DTD SVG 1.1//EN" "http://www.w3.org/Graphics/SVG/1.1/DTD/svg11.dtd">
<svg version="1.1" id="Layer_1" xmlns="http://www.w3.org/2000/svg" xmlns:xlink="http://www.w3.org/1999/xlink" x="0px" y="0px" viewBox="-44.05 -0.04 160 66" style="enable-background:new -44.05 -0.04 160 66;" xml:space="preserve">
<style type="text/css"><![CDATA[

  .logo_large,
  .logo_small { 
     display: none;  
   }

   @media screen and (min-width:125px){
      .logo_large {
         display: block;
       }
   }


   @media screen and (max-width:124px){
      .logo_small {
        display: block;
      }
   }

   polygon,
   path {
      fill: #fff;
    }

]]></style>

  
  <g class="logo_large">

    <polygon points="-27.455, 27.856 -35.162, 27.856 -35.162, 19.048 -27.455, 19.048 -27.455, 14.644 -35.162, 14.644 -35.162, 6.936 -27.455, 6.936 -27.455, 1.431 -41.768, 1.431 -41.768, 33.361 -42.869, 33.361 -42.869, 37.765 -36.263, 37.765 -36.263, 64.189 -30.758, 64.189 -30.758, 37.765 -25.253, 37.765 -25.253, 33.361 -27.455, 33.361 " />
    <polygon points="-2.132, 33.361 3.373, 33.361 3.373, 64.189 8.878, 64.189 8.878, 33.361 12.181, 33.361 12.181, 27.856 4.474, 27.856 4.474, 19.048 12.181, 19.048 12.181, 14.644 4.474, 14.644 4.474, 6.937 12.181, 6.937 12.181, 1.431 -2.132, 1.431 " />
    <path d="M35.412, 33.361l-6.056-13.873c2.642-1.541, 4.074-4.404, 4.074-8.368c0-3.193-0.771-5.615-2.312-7.157 c-1.541-1.652-3.964-2.532-7.157-2.532l-7.377, 0l0, 31.929h-2.202l0, 30.828h5.505l0-16.956c0-1.982-0.22-3.964-0.551-5.065h0.33 l9.689, 22.02l7.046, 0l0-30.828H35.412z M22.09, 6.937l1.431, 0c1.321, 0, 2.312, 0.22, 2.973, 0.881s0.991, 1.762, 0.991, 3.413 c0, 1.541-0.33, 2.642-0.881, 3.413s-1.541, 1.101-2.973, 1.101H22.09L22.09, 6.937z M31.229, 55.381l-9.579-22.02h0.44l0-12.111h2.092 l4.955, 12.111h1.762l0, 16.735c0, 2.092, 0.33, 4.184, 0.551, 5.285H31.229z" />
    <polygon points="40.807, 33.361 46.312, 33.361 46.312, 20.479 54.02, 1.431 47.854, 1.431 43.67, 13.873 39.486, 1.431 33.321, 1.431 40.807, 20.699 " />
    <polygon points="108.63, 1.431 104.446, 13.873 100.262, 1.431 94.096, 1.431 101.363, 20.699 101.363, 33.361 106.868, 33.361 106.868, 20.479 114.685, 1.431 " />
    <path d="M-8.738, 45.472h-7.707l0-12.111l5.065, 0l7.377-31.929l-5.835, 0l-4.074, 19.268 c-0.44, 2.092-0.881, 4.514-1.101, 7.046c-0.33-3.083-0.771-5.505-1.101-7.157l-4.074-19.158l-5.945, 0l7.377, 31.929h-3.193l0, 30.828 l5.505, 0l0-13.212h7.707l0, 13.212h5.505l0-30.828h-5.505L-8.738, 45.472z" />
    <path d="M72.627, 5.615c-2.092-2.753-4.955-4.184-8.588-4.184l-8.918, 0l0, 31.379c0-0.11-1.431-0.22-2.312-0.22 c-4.074, 0-7.046, 1.431-9.359, 4.294c-2.312, 2.863-3.303, 6.826-3.303, 11.891c0, 5.285, 0.991, 9.248, 2.973, 12.001 c1.982, 2.753, 4.955, 4.184, 8.588, 4.184c3.083, 0, 5.615-0.55, 8.918-1.762l0-16.625l-9.909, 0l0, 5.505h4.404v7.267 c-1.101, 0.22-2.202, 0.33-3.193, 0.33c-1.762, 0-3.303-0.991-4.184-2.863c-0.991-1.762-1.431-4.514-1.431-8.037 c0-3.413, 0.661-6.166, 1.872-8.147c1.321-1.982, 3.083-2.973, 5.285-2.973c1.541, 0, 3.193, 0.551, 4.955, 1.541l1.872-4.624 c-1.101-0.661-2.202-1.211-3.303-1.211h6.386c3.964, 0, 7.046-1.541, 9.138-4.294s3.193-6.826, 3.193-12.001 C75.599, 12.221, 74.608, 8.368, 72.627, 5.615z M68.112, 25.323c-0.991, 1.762-2.642, 2.532-4.734, 2.532h-1.652l0-20.919l2.092, 0  c3.854, 0, 5.835, 3.413, 5.835, 10.46C69.654, 20.919, 69.103, 23.452, 68.112, 25.323z" />
    <path d="M91.013, 1.431l-7.927, 0l-7.707, 31.709c0.22, 0.11, 0.44, 0.22, 0.771, 0.22l5.065, 0l1.762-7.707l8.147, 0 l1.762, 7.707h5.835L91.013, 1.431z M84.077, 20.149c1.211-5.505, 1.982-8.808, 2.202-10.239s0.551-2.863, 0.661-4.074 c0.11, 0.551, 0.33, 1.762, 0.661, 3.523c0.33, 1.762, 0.551, 2.973, 0.661, 3.413l1.652, 7.377L84.077, 20.149z" />
    <path d="M75.379, 33.141c-1.211-0.33-2.312-0.551-3.633-0.551c-2.532, 0-4.514, 0.771-6.056, 2.312 c-1.541, 1.541-2.202, 3.743-2.202, 6.386c0, 1.431, 0.22, 2.642, 0.551, 3.743s0.881, 1.982, 1.652, 2.863 c0.661, 0.881, 1.762, 1.762, 3.083, 2.642c1.541, 1.101, 2.642, 1.982, 3.303, 2.863c0.661, 0.881, 0.991, 1.872, 0.991, 2.863 c0, 1.101-0.33, 1.872-0.881, 2.532c-0.551, 0.661-1.541, 0.881-2.642, 0.881c-1.982, 0-4.404-0.771-6.606-2.312v5.835 c2.202, 1.101, 4.294, 1.652, 7.046, 1.652s4.955-0.771, 6.496-2.312s2.202-3.854, 2.202-6.716c0-1.872-0.44-3.523-1.211-4.955 c-0.881-1.431-2.312-2.863-4.294-4.294c-1.541-0.991-2.532-1.872-3.193-2.642c-0.661-0.771-0.881-1.762-0.881-2.753 c0-1.101, 0.22-1.872, 0.771-2.532s1.211-0.881, 2.202-0.881c0.881, 0, 1.652, 0.11, 2.422, 0.44c0.771, 0.33, 1.431, 0.661, 2.202, 1.101 l1.982-4.734c-0.881-0.551-1.762-0.881-2.642-1.211h-0.771L75.379, 33.141z" />
    <path d="M75.269, 33.361h0.771c-0.22-0.11-0.44-0.22-0.771-0.22V33.361z" />

  </g>
  <g class="logo_small">

    <path d="M9.055, 18.526H1.482v-16.8h7.573v2.7H4.607v3.999h4.125v2.712H4.607v4.654h4.447V18.526z" />
    <path d="M17.553, 1.727h3.148l-3.953, 16.8h-3.976l-3.93-16.8h3.148l2.195, 10.261c0.199, 0.874, 0.395, 2.126, 0.586, 3.758 c0.161-1.387, 0.364-2.639, 0.609-3.758L17.553, 1.727z" />
    <path d="M28.58, 18.526h-7.573v-16.8h7.573v2.7h-4.447v3.999h4.125v2.712h-4.125v4.654h4.447V18.526z" />
    <path d="M32.976, 11.988v6.539h-3.125v-16.8h4.091c1.731, 0, 3.009, 0.41, 3.832, 1.229c0.824, 0.82, 1.235, 2.072, 1.235, 3.757 c0, 2.122-0.716, 3.604-2.149, 4.447l3.229, 7.366h-3.344l-2.654-6.539H32.976z M32.976, 9.299h0.804c0.736, 0, 1.264-0.208, 1.586-0.626 s0.482-1.04, 0.482-1.867c0-0.858-0.17-1.469-0.511-1.833s-0.868-0.546-1.58-0.546h-0.781V9.299z" />
    <path d="M44.486, 8.357l2.241-6.63h3.275l-3.987, 10.066v6.734h-3.08v-6.607L38.958, 1.727h3.298L44.486, 8.357z" />
    <path d="M60.994, 9.965c0, 2.773-0.565, 4.894-1.695, 6.36c-1.13, 1.467-2.756, 2.201-4.878, 2.201h-4.114v-16.8H54.8 c1.953, 0, 3.474, 0.722, 4.562, 2.166S60.994, 7.361, 60.994, 9.965z M57.788, 10.058c0-3.754-1.034-5.631-3.103-5.631h-1.252v11.365h1.011 c1.142, 0, 1.984-0.477, 2.528-1.431S57.788, 11.973, 57.788, 10.058z" />
    <path d="M70.216, 18.526l-0.965-4.24h-4.378l-0.965, 4.24h-3.125l4.16-16.869h4.24l4.171, 16.869H70.216z M68.665, 11.517L67.769, 7.61 c-0.053-0.237-0.174-0.833-0.362-1.787c-0.188-0.954-0.301-1.591-0.339-1.913c-0.1, 0.659-0.226, 1.385-0.379, 2.178 s-0.551, 2.603-1.195, 5.429H68.665z" />
    <path d="M77.302, 8.357l2.241-6.63h3.275L78.83, 11.792v6.734h-3.08v-6.607L71.774, 1.727h3.298L77.302, 8.357z" />
    <path d="M92.92, 18.526h-3.114V4.473h-3.218V1.727h9.549v2.746H92.92V18.526z" />
    <path d="M107.13, 18.526h-3.125v-7.366h-4.125v7.366h-3.125v-16.8h3.125v6.676h4.125V1.727h3.125V18.526z" />
    <path d="M109.481, 18.526v-16.8h2.942v16.8H109.481z" />
    <path d="M126.563, 18.526h-3.815l-5.194-12.169h-0.149c0.191, 0.927, 0.287, 1.923, 0.287, 2.988v9.181h-2.896v-16.8h3.838l5.148, 12.042 h0.126c-0.146-0.804-0.218-1.762-0.218-2.873v-9.17h2.873V18.526z" />
    <path d="M133.431, 9.207h5.137v8.618c-1.456, 0.621-3.004, 0.931-4.643, 0.931c-1.954, 0-3.457-0.743-4.511-2.229 c-1.053-1.486-1.58-3.627-1.58-6.423c0-2.697, 0.604-4.807, 1.811-6.332c1.206-1.524, 2.894-2.287, 5.062-2.287 c1.341, 0, 2.62, 0.345, 3.838, 1.034l-0.988, 2.551c-0.95-0.552-1.839-0.827-2.666-0.827c-1.188, 0-2.128, 0.53-2.821, 1.591 s-1.039, 2.507-1.039, 4.338c0, 1.885, 0.25, 3.329, 0.752, 4.332c0.502, 1.004, 1.231, 1.505, 2.189, 1.505c0.506, 0, 1.019-0.065, 1.54-0.195 v-3.85h-2.08V9.207z" />
    <path d="M147.606, 13.896c0, 1.57-0.396, 2.773-1.189, 3.608s-1.937, 1.252-3.431, 1.252c-1.463, 0-2.708-0.288-3.734-0.862v-3.091 c1.257, 0.82, 2.409, 1.229, 3.459, 1.229c0.598, 0, 1.048-0.165, 1.351-0.494c0.302-0.329, 0.453-0.777, 0.453-1.344 c0-0.559-0.18-1.071-0.54-1.534c-0.359-0.463-0.953-0.979-1.781-1.545c-0.72-0.498-1.266-0.975-1.637-1.431 c-0.372-0.456-0.659-0.967-0.862-1.534s-0.305-1.226-0.305-1.977c0-1.44, 0.4-2.582, 1.201-3.424 c0.801-0.842, 1.875-1.264, 3.224-1.264c1.286, 0, 2.523, 0.36, 3.711, 1.08l-1.034, 2.505c-0.367-0.214-0.752-0.406-1.154-0.575 c-0.402-0.168-0.833-0.252-1.293-0.252c-0.506, 0-0.895, 0.167-1.166, 0.5c-0.272, 0.333-0.408, 0.787-0.408, 1.362 c0, 0.567, 0.162, 1.061, 0.488, 1.482c0.325, 0.421, 0.895, 0.9, 1.706, 1.437c1.096, 0.735, 1.86, 1.486, 2.293, 2.252 C147.39, 12.042, 147.606, 12.915, 147.606, 13.896z" />

  </g>
</svg>
